<svg width="66" height="66" viewBox="0 0 66 66" fill="none" xmlns="http://www.w3.org/2000/svg">
<circle cx="33" cy="33" r="33" fill="#FF7474"/>
<path d="M45.0417 16.375H19.9583C17.9793 16.375 16.375 17.9793 16.375 19.9583V45.0417C16.375 47.0207 17.9793 48.625 19.9583 48.625H45.0417C47.0207 48.625 48.625 47.0207 48.625 45.0417V19.9583C48.625 17.9793 47.0207 16.375 45.0417 16.375Z" stroke="white" stroke-width="2" stroke-linecap="round" stroke-linejoin="round"/>
<path d="M16.375 27.125C16.375 26.1747 16.7525 25.2632 17.4245 24.5912C18.0965 23.9192 19.008 23.5417 19.9583 23.5417H45.0417C45.992 23.5417 46.9035 23.9192 47.5755 24.5912C48.2475 25.2632 48.625 26.1747 48.625 27.125" stroke="white" stroke-width="2" stroke-linecap="round" stroke-linejoin="round"/>
<path d="M16.375 30.7083H21.75C23.1833 30.7083 24.6167 31.2458 25.5125 32.3208L27.4833 33.9333C30.35 36.8 34.8292 36.8 37.6958 33.9333L39.6667 32.3208C40.5625 31.425 41.9958 30.7083 43.4292 30.7083H48.625" stroke="white" stroke-width="2" stroke-linecap="round" stroke-linejoin="round"/>
</svg>
