<svg width="66" height="66" viewBox="0 0 66 66" fill="none" xmlns="http://www.w3.org/2000/svg">
<circle cx="33" cy="33" r="33" fill="#3DD9B3"/>
<path d="M32.5 50.4166C42.3951 50.4166 50.4167 42.3951 50.4167 32.5C50.4167 22.6049 42.3951 14.5833 32.5 14.5833C22.6049 14.5833 14.5834 22.6049 14.5834 32.5C14.5834 42.3951 22.6049 50.4166 32.5 50.4166Z" stroke="white" stroke-width="2" stroke-linecap="round" stroke-linejoin="round"/>
<path d="M39.6667 25.3333H28.9167C27.9663 25.3333 27.0549 25.7108 26.3829 26.3828C25.7109 27.0549 25.3334 27.9663 25.3334 28.9166C25.3334 29.867 25.7109 30.7784 26.3829 31.4504C27.0549 32.1225 27.9663 32.5 28.9167 32.5H36.0834C37.0337 32.5 37.9452 32.8775 38.6172 33.5495C39.2892 34.2215 39.6667 35.133 39.6667 36.0833C39.6667 37.0337 39.2892 37.9451 38.6172 38.6171C37.9452 39.2891 37.0337 39.6666 36.0834 39.6666H25.3334" stroke="white" stroke-width="2" stroke-linecap="round" stroke-linejoin="round"/>
<path d="M32.5 43.25V21.75" stroke="white" stroke-width="2" stroke-linecap="round" stroke-linejoin="round"/>
</svg>
