<svg width="66" height="66" viewBox="0 0 66 66" fill="none" xmlns="http://www.w3.org/2000/svg">
<circle cx="33" cy="33" r="33" fill="#EEA8FD"/>
<path d="M17.5834 48.625C17.5832 45.8664 18.3791 43.1664 19.8755 40.849C21.372 38.5315 23.5053 36.6952 26.0196 35.5602C28.5339 34.4253 31.3223 34.04 34.0502 34.4506C36.778 34.8612 39.3294 36.0502 41.3982 37.875" stroke="white" stroke-width="2" stroke-linecap="round" stroke-linejoin="round"/>
<path d="M31.9167 34.2917C36.8643 34.2917 40.875 30.2809 40.875 25.3333C40.875 20.3858 36.8643 16.375 31.9167 16.375C26.9692 16.375 22.9584 20.3858 22.9584 25.3333C22.9584 30.2809 26.9692 34.2917 31.9167 34.2917Z" stroke="white" stroke-width="2" stroke-linecap="round" stroke-linejoin="round"/>
<path d="M48.0416 39.6667V50.4167" stroke="white" stroke-width="2" stroke-linecap="round" stroke-linejoin="round"/>
<path d="M53.4166 45.0417H42.6666" stroke="white" stroke-width="2" stroke-linecap="round" stroke-linejoin="round"/>
</svg>
